<svg xmlns="http://www.w3.org/2000/svg" version="1.0" width="1080.000000pt" height="463.000000pt" viewBox="0 0 1080.000000 463.000000" preserveAspectRatio="xMidYMid meet">

<g transform="translate(0.000000,463.000000) scale(0.100000,-0.100000)" fill="#1C39BB" stroke="none">
<path d="M2235 4596 c-16 -7 -71 -51 -120 -97 -106 -98 -356 -323 -511 -461 -60 -53 -118 -104 -129 -115 -11 -10 -56 -49 -100 -88 -44 -38 -125 -110 -180 -160 -55 -50 -165 -149 -245 -220 -145 -128 -404 -359 -555 -494 -44 -39 -139 -123 -211 -186 -159 -139 -180 -173 -128 -214 25 -20 40 -21 208 -21 209 0 182 -10 327 121 46 43 289 259 539 480 251 222 594 528 764 679 389 347 372 333 390 323 8 -4 72 -60 143 -123 70 -63 144 -129 163 -146 19 -17 116 -103 216 -190 99 -88 362 -321 585 -519 585 -520 651 -578 683 -603 27 -21 38 -22 222 -22 l194 0 16 25 c17 26 12 58 -15 89 -16 19 -515 465 -761 680 -74 65 -200 178 -280 251 -80 73 -210 191 -290 261 -80 71 -286 257 -458 414 -172 157 -331 300 -353 318 -44 35 -67 38 -114 18z" fill="#1C39BB"/>
<path d="M9185 3405 c-38 -13 -91 -27 -117 -31 -69 -10 -73 -38 -10 -64 19 -7 38 -24 43 -37 15 -39 11 -873 -4 -902 -6 -13 -28 -30 -47 -36 -21 -7 -35 -18 -35 -28 0 -10 3 -17 8 -17 4 0 91 0 193 0 170 0 185 1 182 17 -2 10 -17 20 -38 24 -73 15 -70 -10 -70 575 0 493 -1 524 -17 523 -10 -1 -49 -12 -88 -24z" fill="#1C39BB"/>
<path d="M10000 3382 c-28 -18 -176 -182 -224 -245 -54 -73 -14 -60 184 61 58 35 115 73 128 85 28 26 29 70 2 97 -25 25 -57 25 -90 2z" fill="#1C39BB"/>
<path d="M8379 3330 c-196 -41 -330 -141 -404 -303 -58 -125 -56 -326 5 -454 93 -200 358 -333 614 -308 73 7 255 50 269 64 4 4 18 48 31 97 41 154 40 144 11 144 -20 0 -30 -10 -50 -50 -31 -61 -90 -122 -144 -150 -84 -43 -238 -42 -323 1 -54 28 -134 103 -165 157 -85 145 -95 393 -23 547 42 89 91 139 168 177 61 29 76 32 162 32 76 0 104 -4 143 -22 64 -29 138 -101 167 -161 21 -47 45 -69 59 -56 6 7 2 212 -5 237 -7 22 -51 36 -169 53 -130 19 -240 17 -346 -5z" fill="#1C39BB"/>
<path d="M5260 3311 c0 -15 9 -22 34 -26 40 -8 73 -36 81 -68 3 -12 5 -205 3 -429 -3 -453 1 -427 -74 -453 -21 -7 -40 -20 -42 -29 -3 -15 33 -16 390 -14 l393 3 17 105 c23 144 23 160 -2 160 -15 0 -27 -15 -45 -57 -34 -76 -71 -122 -111 -139 -22 -9 -73 -14 -154 -14 -115 0 -122 1 -145 25 l-25 24 0 410 c0 289 3 418 12 435 8 18 25 30 57 39 28 8 46 18 46 27 0 13 -34 15 -217 18 -211 2 -218 2 -218 -17z" fill="#1C39BB"/>
<path d="M9788 3010 c-115 -15 -234 -102 -279 -204 -45 -103 -43 -256 5 -361 74 -162 297 -227 474 -138 90 45 165 135 148 179 -5 13 -11 12 -37 -11 -112 -94 -266 -99 -365 -13 -40 36 -74 121 -73 186 0 47 17 108 18 70 1 -17 19 -18 226 -18 l225 0 0 45 c0 53 -28 133 -63 178 -53 70 -160 103 -279 87z m97 -82 c34 -27 55 -75 55 -128 l0 -40 -136 0 -137 0 7 41 c9 57 39 111 73 131 40 25 104 23 138 -4z" fill="#1C39BB"/>
<path d="M6430 2993 c-131 -45 -214 -151 -240 -306 -21 -118 16 -253 88 -325 150 -150 415 -125 544 52 29 40 37 76 17 76 -6 0 -32 -15 -58 -34 -58 -41 -100 -56 -164 -56 -147 0 -247 102 -247 250 l0 50 235 0 235 0 0 45 c0 53 -28 133 -64 180 -14 18 -49 45 -78 59 -44 22 -65 26 -137 26 -51 -1 -104 -7 -131 -17z m165 -65 c34 -27 55 -75 55 -128 0 -45 4 -44 -112 -40 -48 1 -75 -3 -96 -16 -28 -16 -31 -16 -50 2 -19 18 -20 24 -10 64 13 53 49 109 80 127 37 20 102 16 133 -9z" fill="#1C39BB"/>
<path d="M7110 2978 c-95 -49 -139 -129 -126 -226 11 -83 61 -127 200 -177 100 -36 156 -85 156 -136 0 -44 -23 -77 -66 -95 -99 -42 -216 17 -246 123 -24 85 -45 50 -47 -79 -1 -82 8 -91 125 -115 122 -25 227 0 302 71 52 48 66 82 66 161 1 123 -50 176 -218 225 -117 35 -156 85 -122 157 16 34 64 63 103 63 66 0 137 -47 150 -100 8 -35 22 -50 39 -43 12 4 14 23 12 87 -3 79 -4 81 -33 95 -17 8 -73 16 -130 19 -98 4 -101 3 -165 -30z" fill="#1C39BB"/>
<path d="M10413 2989 c-60 -23 -127 -92 -137 -140 -11 -55 -7 -120 10 -154 23 -49 68 -79 174 -116 101 -35 141 -62 160 -109 39 -95 -77 -170 -194 -126 -54 21 -82 50 -105 112 -11 27 -26 50 -35 52 -14 3 -16 -10 -16 -96 l0 -100 38 -15 c139 -56 291 -39 379 41 57 51 73 88 73 169 0 123 -51 175 -224 228 -95 28 -126 56 -126 111 0 73 79 119 163 94 53 -15 83 -43 107 -98 30 -66 44 -51 48 50 l3 86 -55 16 c-76 22 -198 20 -263 -5z" fill="#1C39BB"/>
<path d="M1148 2703 c-24 -21 -90 -81 -148 -133 -58 -53 -140 -126 -182 -164 -43 -38 -78 -76 -78 -86 0 -17 121 -140 138 -140 13 0 101 69 176 137 32 30 63 52 70 50 18 -6 55 -67 49 -82 -3 -8 -43 -47 -89 -86 -113 -96 -115 -106 -33 -181 109 -100 117 -99 249 28 l90 87 45 -42 c49 -45 78 -51 110 -21 l21 20 190 -168 c104 -92 214 -188 244 -214 51 -43 54 -47 41 -70 -7 -12 -61 -63 -118 -113 -58 -49 -164 -141 -236 -202 -72 -62 -138 -113 -147 -113 -9 0 -32 12 -51 26 -95 71 -201 106 -345 112 -188 7 -315 -40 -440 -163 -115 -113 -167 -238 -167 -405 0 -367 275 -672 651 -723 182 -24 337 28 469 159 186 182 220 436 95 693 l-36 74 35 31 c118 105 491 427 507 437 17 11 35 -2 158 -111 76 -68 199 -174 272 -237 72 -63 132 -118 132 -124 0 -5 -13 -35 -29 -67 -141 -279 -80 -575 156 -759 138 -107 367 -131 573 -59 355 123 576 550 456 880 -54 151 -138 246 -278 314 -97 47 -160 62 -267 62 -146 0 -267 -38 -367 -114 -26 -20 -50 -36 -55 -36 -4 0 -65 51 -136 113 -70 61 -185 161 -255 220 -71 60 -128 112 -128 116 0 9 63 66 323 295 l169 148 22 -21 c32 -30 51 -26 100 19 24 22 47 40 51 40 4 0 43 -35 87 -77 86 -86 129 -114 158 -106 11 3 49 32 85 66 77 70 79 89 17 146 -20 19 -60 55 -87 80 -45 41 -50 49 -42 71 5 14 20 33 33 43 24 18 24 18 77 -31 79 -74 166 -142 182 -142 23 0 135 113 135 136 0 27 -439 424 -469 424 -12 0 -103 -73 -223 -178 -112 -98 -322 -281 -468 -407 -146 -126 -286 -248 -312 -272 -26 -24 -51 -43 -57 -43 -5 0 -40 28 -78 63 -59 53 -230 201 -377 327 -22 19 -63 55 -91 80 -27 26 -81 73 -120 105 -38 33 -137 120 -218 193 -103 91 -157 132 -173 132 -13 0 -43 -17 -66 -37z m85 -1636 c92 -46 192 -137 256 -233 58 -87 83 -161 84 -251 1 -52 -5 -73 -34 -129 -79 -155 -242 -192 -436 -98 -131 62 -254 207 -289 337 -36 135 3 286 91 353 98 74 207 81 328 21z m2336 17 c215 -69 240 -361 50 -591 -50 -61 -143 -131 -222 -167 -51 -23 -159 -31 -229 -17 -137 29 -220 180 -189 346 20 109 62 179 169 285 155 155 268 193 421 144z" fill="#1C39BB"/>
<path d="M7980 1900 c-36 -11 -92 -25 -125 -32 -69 -15 -77 -32 -25 -57 59 -27 63 -51 34 -177 -13 -60 -29 -125 -34 -144 -5 -19 -39 -154 -75 -300 -73 -296 -80 -368 -43 -394 38 -27 98 -20 153 16 47 31 145 126 145 141 0 18 -38 5 -48 -17 -7 -17 -25 -29 -52 -36 -23 -6 -40 -17 -40 -25 0 -17 -16 -20 -24 -6 -11 17 24 179 129 596 58 231 106 427 108 435 3 21 -28 21 -103 0z" fill="#1C39BB"/>
<path d="M6160 1895 c-30 -8 -84 -20 -120 -27 -74 -15 -86 -36 -30 -51 19 -5 45 -18 58 -30 33 -31 31 -72 -13 -237 l-12 -45 -99 -6 c-72 -4 -110 -11 -139 -26 -196 -102 -335 -318 -335 -520 0 -111 36 -163 119 -171 87 -8 186 61 295 207 30 40 57 78 59 85 2 6 7 9 10 6 3 -3 -5 -43 -19 -89 -30 -105 -32 -186 -5 -201 51 -27 135 8 232 99 42 38 51 52 42 61 -9 10 -22 5 -56 -20 -57 -41 -83 -38 -79 10 8 89 153 733 202 900 17 60 14 70 -22 69 -18 0 -58 -7 -88 -14z m-183 -481 c40 -40 29 -116 -35 -247 -85 -171 -181 -281 -241 -275 -115 13 -76 318 60 473 64 73 168 97 216 49z" fill="#1C39BB"/>
<path d="M6485 1900 c-28 -11 -44 -32 -55 -70 -11 -39 -1 -62 46 -106 63 -59 42 -135 -55 -200 -28 -19 -51 -39 -51 -45 0 -53 167 46 225 132 101 154 28 346 -110 289z" fill="#1C39BB"/>
<path d="M7164 1817 c-12 -17 -50 -79 -85 -137 -34 -58 -70 -116 -79 -130 -69 -103 -150 -230 -150 -236 0 -4 -10 -21 -23 -38 -21 -29 -60 -91 -183 -290 -61 -100 -102 -141 -151 -153 -23 -5 -39 -15 -41 -26 -3 -16 12 -17 178 -17 166 0 181 1 178 17 -2 10 -19 21 -43 28 -22 5 -46 14 -54 19 -23 15 -5 72 60 191 45 84 67 115 83 117 11 2 96 2 187 0 l167 -3 11 -77 c7 -42 15 -109 18 -147 6 -81 2 -88 -67 -102 -30 -6 -46 -14 -48 -26 -3 -16 12 -17 210 -15 176 3 213 5 213 17 0 8 -13 19 -30 24 -62 20 -74 43 -99 187 -9 47 -22 123 -31 170 -9 47 -27 148 -40 225 -81 472 -71 435 -122 435 -32 0 -42 -6 -59 -33z m-19 -239 c3 -29 15 -103 26 -165 10 -62 19 -128 19 -148 l0 -35 -155 0 -155 0 20 38 c11 20 39 66 62 102 23 36 53 85 67 110 49 83 94 150 102 150 4 0 10 -24 14 -52z" fill="#1C39BB"/>
<path d="M9350 1485 c-13 -39 -17 -41 -39 -21 -9 8 -39 21 -67 29 -44 13 -62 13 -127 2 -101 -18 -167 -54 -257 -145 -118 -117 -180 -254 -180 -396 0 -84 10 -115 46 -149 20 -19 38 -25 71 -25 81 0 167 59 264 180 40 50 73 90 75 90 2 0 -4 -21 -12 -47 -8 -27 -19 -79 -25 -116 -10 -61 -9 -71 7 -88 37 -41 109 -20 202 59 66 55 89 89 74 104 -8 8 -23 0 -56 -30 -94 -86 -96 -52 -20 258 18 74 45 173 59 219 25 79 27 111 6 111 -5 0 -15 -16 -21 -35z m-170 -65 c42 -42 19 -174 -55 -306 -143 -255 -285 -298 -285 -85 0 77 15 133 63 229 33 66 111 156 149 172 42 16 106 12 128 -10z" fill="#1C39BB"/>
<path d="M8387 1495 c-129 -35 -205 -143 -183 -260 5 -27 29 -59 91 -124 46 -48 92 -106 104 -129 19 -37 19 -43 6 -76 -8 -19 -24 -40 -34 -46 -26 -14 -81 -12 -108 3 -25 14 -73 75 -73 92 0 7 -8 19 -19 29 -40 37 -108 -26 -98 -92 12 -72 80 -112 189 -112 86 0 144 23 201 78 54 52 77 101 77 165 0 61 -22 98 -105 177 -74 70 -105 118 -105 160 0 57 19 75 80 74 50 0 55 -3 101 -52 51 -55 67 -58 93 -17 64 97 -62 173 -217 130z" fill="#1C39BB"/>
<path d="M9823 1496 c-168 -41 -327 -228 -353 -414 -10 -72 -4 -123 20 -188 40 -105 189 -148 308 -88 87 43 200 155 183 183 -6 8 -22 0 -57 -29 -102 -85 -176 -102 -234 -54 -42 36 -60 84 -60 163 1 219 138 428 235 357 10 -7 28 -33 39 -57 27 -56 59 -73 99 -53 32 17 60 73 50 101 -17 50 -87 94 -147 92 -17 0 -54 -6 -83 -13z" fill="#1C39BB"/>
<path d="M10420 1496 c-67 -19 -98 -38 -170 -104 -175 -161 -234 -418 -127 -548 38 -46 81 -64 152 -64 80 0 151 37 247 128 72 69 94 102 67 102 -6 0 -32 -18 -57 -41 -62 -54 -112 -79 -162 -79 -83 0 -133 67 -128 172 l3 60 101 33 c131 43 215 86 264 135 36 36 40 45 40 89 0 104 -97 154 -230 117z m60 -66 c38 -38 20 -113 -41 -164 -33 -28 -125 -77 -168 -91 -23 -7 -23 -6 -17 31 8 45 66 169 93 200 42 47 99 58 133 24z" fill="#1C39BB"/>
</g>
</svg>